<?xml version="1.0" encoding="UTF-8"?>
<!-- Flow Input light FI icon -->
<svg xmlns="http://www.w3.org/2000/svg" viewBox="0 0 1024 1024" width="1024" height="1024">
  <defs>
    <linearGradient id="bg" x1="0%" y1="0%" x2="100%" y2="100%">
      <stop offset="0%" stop-color="#eff6ff"/>
      <stop offset="100%" stop-color="#fdf2f8"/>
    </linearGradient>
    <linearGradient id="pink" x1="100%" y1="0%" x2="0%" y2="0%">
      <stop offset="0%" stop-color="#ec4899" stop-opacity="0.20"/>
      <stop offset="100%" stop-color="#ec4899" stop-opacity="0"/>
    </linearGradient>
    <radialGradient id="core" cx="50%" cy="50%" r="60%">
      <stop offset="0%" stop-color="#475569"/>
      <stop offset="36%" stop-color="#334155"/>
      <stop offset="72%" stop-color="#60a5fa"/>
      <stop offset="100%" stop-color="#f472b6"/>
    </radialGradient>
    <filter id="glow" x="-140%" y="-140%" width="380%" height="380%">
      <feGaussianBlur in="SourceGraphic" stdDeviation="24" result="blur"/>
      <feMerge>
        <feMergeNode in="blur"/>
        <feMergeNode in="SourceGraphic"/>
      </feMerge>
    </filter>
    <clipPath id="clip">
      <rect width="1024" height="1024" rx="200" ry="200"/>
    </clipPath>
  </defs>
  <g clip-path="url(#clip)">
    <rect width="1024" height="1024" fill="#ffffff"/>
    <rect width="1024" height="1024" fill="url(#bg)"/>
    <rect x="113" y="338" width="798" height="174" rx="41" ry="41" fill="#fde047" fill-opacity="0.65"/>
    <rect x="113" y="543" width="594" height="133" rx="41" ry="41" fill="#c4b5fd" fill-opacity="0.55"/>
    <rect x="635" y="0" width="389" height="1024" fill="url(#pink)"/>
    <circle cx="512" cy="512" r="132" fill="#60a5fa" fill-opacity="0.34"/>
    <circle cx="512" cy="512" r="84" fill="#ec4899" fill-opacity="0.48"/>
    <circle cx="512" cy="512" r="60" fill="none" stroke="#ffffff" stroke-opacity="0.9" stroke-width="10"/>
    <circle cx="512" cy="512" r="40" fill="none" stroke="#60a5fa" stroke-opacity="0.78" stroke-width="8"/>
    <circle cx="512" cy="512" r="28" fill="url(#core)" filter="url(#glow)"/>
    <text x="350" y="632" font-family="Georgia,'Times New Roman',serif" font-weight="700" font-size="348" fill="#334155" text-anchor="middle">F</text>
    <text x="676" y="632" font-family="Georgia,'Times New Roman',serif" font-weight="700" font-size="348" fill="#334155" text-anchor="middle">I</text>
  </g>
</svg>
